<?xml version="1.0" encoding="UTF-8"?>
<svg id="Layer_1" xmlns="http://www.w3.org/2000/svg" version="1.1" viewBox="0 0 500 110.12">
  <!-- Generator: Adobe Illustrator 29.8.2, SVG Export Plug-In . SVG Version: 2.1.1 Build 3)  -->
  <defs>
    <style>
      .st0 {
        fill: #fff;
      }

      .st1 {
        fill: #51db23;
      }
    </style>
  </defs>
  <g id="Layer_1-2">
    <g>
      <g>
        <path class="st0" d="M50.23,26.18v-15.71H5.95v51.7c0,19.78,16.02,35.8,35.8,35.8h8.47v-17.52h-8.47c-10.18,0-18.27-8.1-18.27-18.27V26.18h26.76,0Z"/>
        <path class="st0" d="M88.72,10.47c-15.83,5.01-27.18,19.8-27.18,37.18v50.49h17.52v-50.49c0-11.87,9.61-21.48,21.48-21.48h17.9v-15.71h-29.72Z"/>
        <path class="st0" d="M190.22,10.47v48.86c0,11.87-9.61,21.48-21.48,21.48s-21.48-9.61-21.48-21.48V10.47h-17.52v48.86c0,21.48,17.33,39.01,39.01,39.01s39.01-17.52,39.01-39.01V10.47h-17.54Z"/>
        <path class="st0" d="M263.32,26.18v-15.71h-44.27v51.7c0,19.78,16.02,35.8,35.8,35.8h8.47v-17.52h-8.47c-10.18,0-18.27-8.1-18.27-18.27V26.18h26.76-.02Z"/>
        <path class="st0" d="M302.94,14.37c-15.53,6.98-26.28,22.61-26.28,40.78,0,24.5,19.82,44.5,44.5,44.5,18.73,0,34.78-11.72,41.26-28.1h-18.91c-5.04,6.85-13.16,11.35-22.35,11.35-12.07,0-22.35-7.75-26.12-18.56h69.55c.73-2.88,1.08-6.13,1.08-9.19,0-24.68-20-44.68-44.5-44.68-4.73,0-9.28.74-13.55,2.1M294.33,47.58c3.24-11.71,14.05-20.36,26.85-20.36s23.42,8.65,26.67,20.36h-53.52Z"/>
        <path class="st0" d="M450.79,10.54v42.57c0,14.89-12.06,27.14-27.14,27.14s-27.14-12.25-27.14-27.14,12.06-27.32,27.14-27.32v-15.16c-24.68,0-44.66,17.79-44.66,42.49s19.97,44.66,44.66,44.66,44.66-19.97,44.66-44.66V10.54h-17.52Z"/>
      </g>
      <circle class="st1" cx="485.62" cy="91.22" r="8.43"/>
    </g>
  </g>
</svg>